HIERARCHY
ROOT SimulationBone
{
	OFFSET 0.000000 0.000000 0.000000
	CHANNELS 6 Xposition Yposition Zposition Zrotation Yrotation Xrotation 
	JOINT Hips
	{
		OFFSET 0.000000 0.000000 0.000000
		CHANNELS 6 Xposition Yposition Zposition Zrotation Yrotation Xrotation 
		JOINT LeftUpLeg
		{
			OFFSET 0.103456 1.857823 10.548498
			CHANNELS 3 Zrotation Yrotation Xrotation
			JOINT LeftLeg
			{
				OFFSET 43.500000 -0.000019 -0.000002
				CHANNELS 3 Zrotation Yrotation Xrotation
				JOINT LeftFoot
				{
					OFFSET 42.372204 0.000027 -0.000005
					CHANNELS 3 Zrotation Yrotation Xrotation
					JOINT LeftToe
					{
						OFFSET 17.299999 -0.000001 0.000000
						CHANNELS 3 Zrotation Yrotation Xrotation
						End Site
						{
							OFFSET 0.000000 0.000000 0.000000
						}
					}
				}
			}
		}
		JOINT RightUpLeg
		{
			OFFSET 0.103456 1.857824 -10.548502
			CHANNELS 3 Zrotation Yrotation Xrotation
			JOINT RightLeg
			{
				OFFSET 43.500038 -0.000015 0.000017
				CHANNELS 3 Zrotation Yrotation Xrotation
				JOINT RightFoot
				{
					OFFSET 42.372261 -0.000015 0.000015
					CHANNELS 3 Zrotation Yrotation Xrotation
					JOINT RightToe
					{
						OFFSET 17.299984 -0.000007 -0.000002
						CHANNELS 3 Zrotation Yrotation Xrotation
						End Site
						{
							OFFSET 0.000000 0.000000 0.000000
						}
					}
				}
			}
		}
		JOINT Spine
		{
			OFFSET 6.901968 -2.603745 -0.000005
			CHANNELS 3 Zrotation Yrotation Xrotation
			JOINT Spine1
			{
				OFFSET 12.588100 0.000014 0.000013
				CHANNELS 3 Zrotation Yrotation Xrotation
				JOINT Spine2
				{
					OFFSET 12.343204 0.000008 -0.000010
					CHANNELS 3 Zrotation Yrotation Xrotation
					JOINT Neck
					{
						OFFSET 25.832903 0.000002 0.000010
						CHANNELS 3 Zrotation Yrotation Xrotation
						JOINT Head
						{
							OFFSET 11.766598 0.000015 -0.000000
							CHANNELS 3 Zrotation Yrotation Xrotation
							End Site
							{
								OFFSET 0.000000 0.000000 0.000000
							}
						}
					}
					JOINT LeftShoulder
					{
						OFFSET 19.745903 -1.480366 6.000109
						CHANNELS 3 Zrotation Yrotation Xrotation
						JOINT LeftArm
						{
							OFFSET 11.284134 0.000001 -0.000017
							CHANNELS 3 Zrotation Yrotation Xrotation
							JOINT LeftForeArm
							{
								OFFSET 33.000042 0.000010 0.000015
								CHANNELS 3 Zrotation Yrotation Xrotation
								JOINT LeftHand
								{
									OFFSET 25.200022 0.000012 0.000000
									CHANNELS 3 Zrotation Yrotation Xrotation
									End Site
									{
										OFFSET 0.000000 0.000000 0.000000
									}
								}
							}
						}
					}
					JOINT RightShoulder
					{
						OFFSET 19.746094 -1.480373 -6.000069
						CHANNELS 3 Zrotation Yrotation Xrotation
						JOINT RightArm
						{
							OFFSET 11.284146 -0.000006 -0.000018
							CHANNELS 3 Zrotation Yrotation Xrotation
							JOINT RightForeArm
							{
								OFFSET 33.000103 0.000006 0.000016
								CHANNELS 3 Zrotation Yrotation Xrotation
								JOINT RightHand
								{
									OFFSET 25.199755 0.000126 0.000423
									CHANNELS 3 Zrotation Yrotation Xrotation
									End Site
									{
										OFFSET 0.000000 0.000000 0.000000
									}
								}
							}
						}
					}
				}
			}
		}
	}
}
MOTION
Frames: 13
Frame Time: 0.016667
-229.065073 0.000000 300.208915 0.000000 -64.098361 0.000000 -3.614421 90.582481 -0.556447 85.000248 0.120380 178.425277 153.473940 -10.576405 171.035819 -35.025656 -1.096402 2.580248 79.589133 -4.041931 -8.904697 21.454551 0.003093 0.000000 168.911015 -1.654401 -157.970364 -24.424372 -5.153912 11.666900 91.526043 -6.686406 8.136018 21.454557 -0.003102 -0.000017 6.571330 1.030037 0.985052 3.148039 2.033298 1.997599 2.829930 2.045459 1.985279 14.806373 7.398024 21.222591 -28.880183 -21.924509 33.905878 -117.764174 -82.912511 -64.447157 15.852897 68.132869 51.937064 -42.747421 -22.621904 2.033621 9.086724 -1.239171 16.012402 174.931280 83.842043 -3.552291 7.884977 -64.971647 -22.247650 -32.978652 10.014400 -0.993453 6.237796 0.376248 -12.025581 
-229.230151 0.000000 300.401793 0.000000 -63.233369 0.000000 -3.677560 90.569003 -0.746750 84.942675 0.051184 178.593607 152.833068 -10.413699 169.045719 -35.713792 -0.980731 1.081831 79.779609 -2.955393 -8.887756 21.454553 0.003087 -0.000000 168.922767 -1.719442 -157.625135 -24.427535 -5.293300 12.108394 91.555087 -6.952901 8.368638 21.454557 -0.003099 -0.000017 6.589539 1.023326 1.037574 3.185231 2.018147 2.102784 2.867148 2.030943 2.090554 14.472942 7.431601 20.614902 -28.199463 -22.030554 33.147094 -119.377051 -82.981419 -62.817591 14.686312 68.161129 50.342049 -43.607833 -22.933528 2.080815 9.107813 -1.429424 16.842877 174.783033 83.799919 -3.703078 6.511464 -64.942708 -22.420484 -33.207834 9.858551 -0.988141 6.238577 0.287191 -12.420420 
-229.336143 0.000000 300.583786 0.000000 -62.412716 0.000000 -3.720443 90.546059 -0.894479 84.912396 0.024876 178.768454 152.362736 -10.299291 166.892025 -36.188896 -0.826232 -0.394475 80.080798 -1.713528 -8.189717 21.454553 0.003088 0.000000 168.976517 -1.833490 -157.367572 -24.428267 -5.434005 12.583579 91.574866 -7.238529 8.628983 21.454558 -0.003101 -0.000018 6.603196 1.022490 1.087957 3.213408 2.014834 2.203769 2.895352 2.028239 2.191563 14.161000 7.400387 19.963579 -27.293988 -22.114496 32.266168 -120.987463 -83.028344 -61.191759 13.565044 68.224810 48.513445 -44.710769 -23.242353 2.133607 9.060159 -1.786631 17.232960 174.802080 83.763497 -3.684843 4.980011 -64.888346 -22.258517 -33.381661 9.731709 -0.983473 6.223422 0.250393 -12.730322 
-229.385083 0.000000 300.755643 0.000000 -61.635469 0.000000 -3.746139 90.529052 -1.000275 84.901325 0.007832 178.968273 152.066271 -10.132471 164.632183 -36.404378 -0.612609 -1.884106 80.387823 -0.394153 -7.168664 21.454552 0.003092 0.000001 169.091717 -1.960912 -157.160938 -24.374543 -5.566802 13.072319 91.568475 -7.531188 8.901893 21.454559 -0.003106 -0.000018 6.609951 1.021244 1.130013 3.227634 2.011038 2.287964 2.909603 2.024950 2.275786 13.904203 7.294162 19.300919 -26.182029 -22.171011 31.299361 -122.534295 -83.049362 -59.631495 12.322474 68.303602 46.389631 -45.987393 -23.517264 2.191057 8.960493 -2.257827 17.133836 174.874538 83.730269 -3.612607 3.361017 -64.816655 -21.804366 -33.515212 9.633777 -0.979885 6.202565 0.274322 -12.962857 
-229.379000 0.000000 300.918112 0.000000 -60.900444 0.000000 -3.757458 90.533386 -1.064983 84.902147 -0.033810 179.211343 151.939620 -9.810705 162.324104 -36.314814 -0.317316 -3.421723 80.579374 0.931294 -6.187813 21.454551 0.003095 0.000001 169.288014 -2.066194 -156.968512 -24.214069 -5.683343 13.554251 91.519247 -7.818607 9.172358 21.454560 -0.003110 -0.000018 6.607446 1.013306 1.157551 3.222938 1.994453 2.342770 2.904926 2.008693 2.330695 13.736378 7.103791 18.659049 -24.882216 -22.195647 30.283391 -123.953159 -83.041247 -58.201912 10.795764 68.371461 43.912606 -47.367846 -23.727335 2.249729 8.829389 -2.791632 16.496471 174.889233 83.697729 -3.598678 1.723751 -64.736381 -21.099223 -33.623542 9.564663 -0.977693 6.186409 0.367565 -13.125617 
-229.319926 0.000000 301.071942 0.000000 -60.206237 0.000000 -3.756052 90.567098 -1.090886 84.908860 -0.116870 179.509760 151.975131 -9.273699 160.025064 -35.888345 0.071102 -4.991052 80.531179 2.189176 -5.509344 21.454550 0.003096 0.000001 169.573815 -2.127702 -156.755909 -23.920868 -5.778905 14.010186 91.418344 -8.088468 9.432314 21.454560 -0.003111 -0.000017 6.593598 0.995596 1.166688 3.195013 1.959087 2.360307 2.877012 1.973430 2.348442 13.686207 6.826898 18.066297 -23.418156 -22.185396 29.254090 -125.190474 -83.004384 -56.956995 8.844228 68.397235 41.041282 -48.780298 -23.852494 2.304741 8.691072 -3.336102 15.337309 174.772015 83.663519 -3.717997 0.133915 -64.653374 -20.193235 -33.723101 9.523624 -0.977145 6.182805 0.535728 -13.226950 
-229.209891 0.000000 301.217880 0.000000 -59.551250 0.000000 -3.739592 90.608757 -1.085394 84.918467 -0.189325 179.851512 152.181695 -8.632513 157.784323 -35.140305 0.507281 -6.377063 80.173893 3.271198 -4.970407 21.454551 0.003094 0.000001 169.912171 -2.178495 -156.498758 -23.575142 -5.859980 14.426227 91.287410 -8.328813 9.700995 21.454560 -0.003110 -0.000016 6.567446 0.977841 1.162764 3.142246 1.924246 2.351526 2.824251 1.938536 2.339867 13.761691 6.484986 17.537139 -21.832524 -22.139131 28.242464 -126.242187 -82.951477 -55.899937 6.397324 68.351770 37.784632 -50.148662 -23.915111 2.354649 8.573792 -3.832719 13.936895 174.588691 83.625835 -3.904166 -1.349838 -64.558762 -19.180410 -33.835947 9.507303 -0.978514 6.188879 0.772277 -13.278315 
-229.050927 0.000000 301.356676 0.000000 -58.933719 0.000000 -3.705882 90.637304 -1.056061 84.927822 -0.201277 -179.781801 152.563450 -8.004351 155.647090 -34.108694 0.936092 -7.380420 79.530983 4.102000 -4.329278 21.454550 0.003092 0.000000 170.264059 -2.252361 -156.186947 -23.259066 -5.932950 14.793535 91.147537 -8.530953 9.998575 21.454560 -0.003109 -0.000016 6.528713 0.969231 1.152280 3.064405 1.908110 2.329689 2.746414 1.922272 2.318124 13.961750 6.103712 17.079802 -20.175701 -22.058485 27.276494 -127.128531 -82.896684 -55.009428 3.438224 68.207422 34.183293 -51.407698 -23.946361 2.400024 8.493840 -4.233710 12.628283 174.421165 83.584103 -4.074491 -2.677560 -64.442954 -18.160134 -33.984975 9.513266 -0.982149 6.197603 1.063250 -13.292205 
-228.845064 0.000000 301.489077 0.000000 -58.351737 0.000000 -3.658526 90.662651 -1.006359 84.932624 -0.180098 -179.409794 153.048132 -7.364899 153.654858 -32.896789 1.345901 -8.060686 78.911743 4.771641 -3.457151 21.454551 0.003090 0.000000 170.628712 -2.331404 -155.856229 -22.956075 -5.997959 15.117386 90.987387 -8.698442 10.322690 21.454560 -0.003110 -0.000017 6.478763 0.964006 1.137195 2.964129 1.899070 2.298567 2.646137 1.913047 2.287058 14.271887 5.702487 16.692689 -18.510217 -21.947723 26.376827 -127.886338 -82.848669 -54.247934 0.052937 67.953863 30.312647 -52.537858 -23.970152 2.441218 8.441145 -4.548470 11.691651 174.281510 83.541885 -4.216697 -3.830830 -64.299959 -17.205577 -34.190792 9.545393 -0.988760 6.195801 1.377232 -13.282161 
-228.594332 0.000000 301.615832 0.000000 -57.803273 0.000000 -3.602936 90.697715 -0.940330 84.930173 -0.164918 -179.053431 153.561682 -6.679936 151.880563 -31.617693 1.732665 -8.491146 78.611438 5.349453 -2.311550 21.454552 0.003091 -0.000000 171.008784 -2.387444 -155.549136 -22.642686 -6.054775 15.405828 90.796501 -8.837547 10.666885 21.454560 -0.003112 -0.000018 6.420085 0.954206 1.118497 2.846247 1.881120 2.259969 2.528248 1.894860 2.248575 14.671590 5.297499 16.370942 -16.898808 -21.815669 25.560620 -128.556793 -82.812276 -53.573760 -3.637569 67.586828 26.263003 -53.534879 -24.002471 2.478899 8.395967 -4.807568 11.332839 174.156884 83.503117 -4.343658 -4.803942 -64.126317 -16.369218 -34.471592 9.608526 -0.999119 6.170359 1.681652 -13.262206 
-228.300764 0.000000 301.737690 0.000000 -57.286197 0.000000 -3.546096 90.736473 -0.867766 84.924016 -0.164544 -178.737534 154.114666 -5.996205 150.527150 -30.348975 2.076849 -8.537552 78.568874 5.679240 -1.103050 21.454553 0.003092 0.000000 171.381044 -2.403895 -155.290471 -22.366510 -6.105500 15.664265 90.600334 -8.953838 11.030390 21.454560 -0.003114 -0.000018 6.358009 0.938015 1.097799 2.721422 1.850461 2.217181 2.403413 1.863939 2.205978 15.130085 4.899684 16.105885 -15.393860 -21.680419 24.839486 -129.180604 -82.783373 -52.946069 -7.474142 67.100984 22.150432 -54.409129 -24.034989 2.512798 8.325817 -5.067567 11.510949 174.005147 83.469150 -4.497886 -5.609345 -63.922905 -15.648061 -34.838117 9.705069 -1.013618 6.114867 1.956715 -13.246791 
-227.966390 0.000000 301.855397 0.000000 -56.798291 0.000000 -3.493526 90.768192 -0.798632 84.920335 -0.177074 -178.484602 154.717260 -5.359283 149.817805 -29.171498 2.352047 -8.150695 78.662546 5.649763 -0.107079 21.454551 0.003092 0.000000 171.717144 -2.367502 -155.094215 -22.196060 -6.152518 15.891997 90.428992 -9.048265 11.416835 21.454559 -0.003113 -0.000018 6.298610 0.915694 1.076647 2.601843 1.807449 2.173421 2.283828 1.820668 2.162479 15.615334 4.517061 15.887813 -14.040883 -21.561701 24.220440 -129.797494 -82.756548 -52.325055 -11.297739 66.496390 18.094369 -55.173092 -24.054244 2.542080 8.201228 -5.385350 12.098537 173.793290 83.439053 -4.712743 -6.266971 -63.692432 -15.017182 -35.296563 9.834412 -1.032463 6.026342 2.192093 -13.246123 
-227.593241 0.000000 301.969704 0.000000 -56.337266 0.000000 -3.444352 90.782227 -0.737167 84.929730 -0.188121 -178.303768 155.268778 -4.723790 149.928580 -28.222325 2.552429 -7.825613 78.930819 5.542036 0.412670 21.454551 0.003092 -0.000000 171.994176 -2.268104 -154.949234 -22.212262 -6.198419 16.066343 90.295469 -9.102848 11.842061 21.454560 -0.003111 -0.000017 6.248095 0.889655 1.055703 2.499980 1.756787 2.130174 2.181962 1.769752 2.119536 16.100206 4.152047 15.705277 -12.870558 -21.473884 23.701170 -130.452795 -82.730657 -51.665132 -14.965147 65.770901 14.224922 -55.833899 -24.050550 2.566237 8.014937 -5.794316 12.867900 173.551691 83.405534 -4.957768 -6.807327 -63.442798 -14.420644 -35.842257 9.986368 -1.054974 5.909216 2.402634 -13.253100 
